# xmcd
#
# Track frame offsets: 
#        150
#        17890
#        34457
#        54884
#        57204
#        71817
#        92614
#        106132
#        126902
#        154102
#        167360
#
# Disc length: 2424 seconds
#
# Revision: 0
# Processed by: cddbd v1.5.1PL0 Copyright (c) Steve Scherf et al.
# Submitted via: ExactAudioCopy v0.95a3
#
DISCID=8a09760b
DTITLE=Robin Kelly - Black Ice
DYEAR=1998
DGENRE=Rock
TTITLE0=Black Ice
TTITLE1=Cyring Shame
TTITLE2=Sarsen Stone
TTITLE3=Instrumental
TTITLE4=Empty Sack Of Dreams
TTITLE5=A Shot Rang Through Me
TTITLE6=Sweet Youth
TTITLE7=They Gave You His Name
TTITLE8=Rotorua Night
TTITLE9=The Road I'm Travelling On
TTITLE10=I Still Would You Know
EXTD=
EXTT0=
EXTT1=
EXTT2=
EXTT3=
EXTT4=
EXTT5=
EXTT6=
EXTT7=
EXTT8=
EXTT9=
EXTT10=
PLAYORDER=
